<svg width="1920" height="211" viewBox="0 0 1920 211" fill="none" xmlns="http://www.w3.org/2000/svg">
<mask id="mask0_269_1289" style="mask-type:alpha" maskUnits="userSpaceOnUse" x="0" y="-1" width="1920" height="212">
<path d="M0 -0.000280638L1920 0L1920 210.11L-1.09863e-05 210.109L0 -0.000280638Z" fill="url(#paint0_linear_269_1289)"/>
</mask>
<g mask="url(#mask0_269_1289)">
<path opacity="0.25" d="M0.00683594 -1.72485V102.482C104.124 152.458 225.692 174.902 344.231 165.515C497.52 153.426 641.244 90.5282 794.773 81.0958C955.643 71.2807 1116.21 119.096 1270.15 160.472C1421.06 200.993 1571.46 216.481 1726.36 189.917C1805.11 176.41 1878.53 149.757 1953.92 123.868C2155.74 54.5545 2424.83 -33.8941 2614.37 116.394V-1.72485H0.00683594Z" fill="#F9FAFB"/>
<path d="M0.00683594 -1.72485V10.9492C326.65 131.094 684.294 158.829 1036.67 94.1076C1130.35 76.9086 1220.17 48.814 1314.68 34.5415C1443.22 15.1139 1559.73 62.0959 1675.38 114.233C1803.76 172.111 1930.28 212.677 2072.32 200.881C2260.84 185.122 2448.05 97.9796 2614.37 9.95873V-1.72485H0.00683594Z" fill="#F9FAFB"/>
</g>
<defs>
<linearGradient id="paint0_linear_269_1289" x1="-4.82781e-06" y1="85.1587" x2="1782.62" y2="-582.327" gradientUnits="userSpaceOnUse">
<stop stop-color="#5758E3"/>
<stop offset="1" stop-color="#6FB8EF"/>
</linearGradient>
</defs>
</svg>
